<?xml version="1.0" encoding="UTF-8"?>
<!-- Generator: Adobe Illustrator 28.0.0, SVG Export Plug-In . SVG Version: 6.00 Build 0)  -->
<svg version="1.1" xmlns="http://www.w3.org/2000/svg" xmlns:xlink="http://www.w3.org/1999/xlink" x="0px" y="0px" viewBox="0 0 5597.93 790.49" style="enable-background:new 0 0 5597.93 790.49;" xml:space="preserve">
<g id="Background">
</g>
<g id="Artwork">
	<g>
		<path d="M720,720h160V240H720V720z M960,160h400V0H960V160z M720,0h160v160H720V0z M480,720h160V0H480V720z M240,560h160V0H240    V560z M0,720h160V0H0V720z M960,720h160V240H960V720z"/>
		<g>
			<path d="M1507.07,570.63c0-89.79,56.22-156.51,144.76-156.51c88.53,0,144.34,66.71,144.34,156.51     c0,89.79-55.8,156.09-144.34,156.09C1563.29,726.71,1507.07,660.42,1507.07,570.63z M1734.07,570.63     c0-60-26.85-106.58-81.82-106.58s-83.08,46.57-83.08,106.58c0,59.58,28.11,106.16,83.08,106.16S1734.07,630.21,1734.07,570.63z"/>
			<path d="M1812.1,504.75h29.37v-17.62c0-52.45,40.7-70.91,93.57-65.04v44.06c-24.75-1.26-36.5,2.1-36.5,24.34v14.27h64.2v-19.3     c0-52.45,40.7-70.91,95.67-65.04v44.06c-26.85-1.26-38.6,2.1-38.6,24.34v15.94h38.6v39.44h-38.6V720h-57.06V544.19h-64.2V720     h-57.06V544.19h-29.37V504.75z M2084,420h57.06v51.19H2084V420z M2084,504.75h57.06V720H2084V504.75z"/>
			<path d="M2167.49,612.59c0-64.2,41.96-113.71,107.41-113.71c55.81,0,90.21,32.31,97.76,78.88h-55.8     c-3.78-18.88-18.46-33.15-39.44-33.15c-34.41,0-52.03,26.43-52.03,67.97c0,40.7,16.36,67.97,51.19,67.97     c23.08,0,39.44-12.17,43.22-36.5h54.97c-3.78,45.73-39.44,82.24-96.92,82.24C2209.87,726.29,2167.49,676.78,2167.49,612.59z"/>
			<path d="M2389.03,612.17c0-63.78,43.22-113.29,106.16-113.29c69.23,0,106.16,52.87,106.16,129.65h-156.09     c4.2,33.15,22.66,53.71,54.97,53.71c22.24,0,35.25-10.07,41.54-26.43h56.22c-7.97,38.18-41.96,70.49-97.34,70.49     C2429.31,726.29,2389.03,676.36,2389.03,612.17z M2446.09,589.09h95.67c-1.68-27.27-19.72-46.15-45.73-46.15     C2465.81,542.93,2451.12,560.98,2446.09,589.09z"/>
			<path d="M2687.76,612.59c0-64.2,45.74-113.71,112.45-113.71c66.71,0,112.45,49.51,112.45,113.71     c0,64.2-45.73,113.71-112.45,113.71C2733.5,726.29,2687.76,676.78,2687.76,612.59z M2854.76,612.59     c0-41.96-19.72-70.49-54.55-70.49c-35.25,0-54.55,28.53-54.55,70.49c0,41.96,19.3,70.07,54.55,70.07     C2835.04,682.66,2854.76,654.54,2854.76,612.59z"/>
			<path d="M2922.31,504.75h29.37v-19.3c0-52.45,40.7-70.91,95.67-65.04v44.06c-26.85-1.26-38.6,2.1-38.6,24.34v15.94h38.6v39.44     h-38.6V720h-57.06V544.19h-29.37V504.75z"/>
			<path d="M3135.03,627.27h59.58c4.2,36.08,24.76,50.35,67.55,50.35c31.05,0,58.32-10.91,58.32-38.6     c0-29.37-28.53-35.25-74.27-45.73c-53.71-12.17-102.8-26.43-102.8-88.95c0-59.16,48.25-89.79,114.97-89.79     c67.55,0,111.19,33.15,115.81,93.57h-58.32c-3.36-30.21-26.85-45.32-57.9-45.32c-32.73,0-54.13,13.85-54.13,35.25     c0,24.34,20.98,31.47,65.46,41.12c61.68,13.43,112.03,28.11,112.03,92.73c0,60.84-49.09,94.83-116.64,94.83     C3183.28,726.71,3137.12,690.63,3135.03,627.27z"/>
			<path d="M3549.15,720v-25.18h-1.26c-14.69,19.72-31.47,31.05-61.68,31.05c-47.83,0-74.69-30.63-74.69-77.62v-143.5h56.64V638.6     c0,25.18,11.33,39.02,35.67,39.02c26.85,0,43.22-20.14,43.22-48.67v-124.2h57.06V720H3549.15z"/>
			<path d="M3627.61,650.35h52.87c3.78,24.76,21.4,35.67,46.99,35.67c25.17,0,39.44-9.65,39.44-24.76     c0-20.56-27.27-22.66-56.64-28.53c-38.6-7.55-76.36-18.04-76.36-65.04c0-46.57,38.6-68.81,87.69-68.81     c56.64,0,88.11,28.11,92.31,71.33h-51.61c-2.52-23.08-17.2-31.47-41.54-31.47c-22.24,0-36.92,8.39-36.92,23.92     c0,18.46,28.53,20.14,59.16,26.43c36.08,7.55,75.95,17.62,75.95,67.97c0,43.22-36.92,69.23-90.63,69.23     C3665.8,726.29,3630.97,696.08,3627.61,650.35z"/>
			<path d="M3827.75,504.75h29.79v-67.13h55.8v67.13h36.92v37.76h-36.92v114.13c0,15.94,8.81,21.4,21.4,21.4     c7.13,0,16.78-0.42,16.78-0.42v41.96c0,0-13.01,0.84-35.67,0.84c-27.69,0-58.32-10.91-58.32-51.61v-126.3h-29.79V504.75z"/>
			<path d="M4110.54,696.08h-0.84c-10.91,16.36-26.43,28.95-63.36,28.95c-44.06,0-75.11-23.08-75.11-65.88     c0-47.41,38.6-62.52,86.44-69.23c35.66-5.04,52.03-7.97,52.03-24.34c0-15.52-12.17-25.59-36.08-25.59     c-26.85,0-39.86,9.65-41.54,30.21h-50.77c1.68-37.76,29.79-70.91,92.73-70.91c64.62,0,90.63,28.95,90.63,79.3v109.51     c0,16.36,2.52,26.01,7.55,29.79v2.1h-54.97C4113.9,715.8,4111.8,705.73,4110.54,696.08z M4110.96,644.05v-32.31     c-10.07,5.88-25.59,9.23-39.86,12.59c-29.79,6.71-44.48,13.43-44.48,33.57c0,20.14,13.43,27.27,33.57,27.27     C4092.92,685.17,4110.96,665.03,4110.96,644.05z"/>
			<path d="M4200.74,420h57.06v51.19h-57.06V420z M4200.74,504.75h57.06V720h-57.06V504.75z"/>
			<path d="M4350.53,534.12h1.26c14.69-23.08,34.41-35.25,63.78-35.25c44.48,0,74.27,33.57,74.27,80.56V720h-57.06V587.83     c0-23.08-13.43-39.44-37.34-39.44c-25.17,0-43.64,20.14-43.64,49.51V720h-57.06V504.75h55.8V534.12z"/>
			<path d="M4653.89,696.08h-0.84c-10.91,16.36-26.43,28.95-63.36,28.95c-44.06,0-75.11-23.08-75.11-65.88     c0-47.41,38.6-62.52,86.44-69.23c35.66-5.04,52.03-7.97,52.03-24.34c0-15.52-12.17-25.59-36.08-25.59     c-26.85,0-39.86,9.65-41.54,30.21h-50.77c1.68-37.76,29.79-70.91,92.73-70.91c64.62,0,90.63,28.95,90.63,79.3v109.51     c0,16.36,2.52,26.01,7.55,29.79v2.1h-54.97C4657.25,715.8,4655.15,705.73,4653.89,696.08z M4654.31,644.05v-32.31     c-10.07,5.88-25.59,9.23-39.86,12.59c-29.79,6.71-44.48,13.43-44.48,33.57c0,20.14,13.43,27.27,33.57,27.27     C4636.27,685.17,4654.31,665.03,4654.31,644.05z"/>
			<path d="M4799.9,693.15h-0.84V720h-54.97V420h57.06v110.77h1.26c11.75-18.04,30.21-31.89,60-31.89     c54.13,0,92.73,46.57,92.73,113.71c0,69.65-36.92,113.71-91.05,113.71C4833.88,726.29,4812.48,713.29,4799.9,693.15z      M4897.24,612.59c0-39.86-15.94-67.55-47.83-67.55c-36.08,0-49.51,28.95-49.51,68.81c0,39.44,19.72,64.62,51.61,64.62     C4880.88,678.46,4897.24,654.12,4897.24,612.59z"/>
			<path d="M4981.57,420h57.06v51.19h-57.06V420z M4981.57,504.75h57.06V720h-57.06V504.75z"/>
			<path d="M5076.4,420h57.06v300h-57.06V420z"/>
			<path d="M5171.22,420h57.06v51.19h-57.06V420z M5171.22,504.75h57.06V720h-57.06V504.75z"/>
			<path d="M5252.62,504.75h29.79v-67.13h55.8v67.13h36.92v37.76h-36.92v114.13c0,15.94,8.81,21.4,21.4,21.4     c7.13,0,16.78-0.42,16.78-0.42v41.96c0,0-13.01,0.84-35.67,0.84c-27.69,0-58.32-10.91-58.32-51.61v-126.3h-29.79V504.75z"/>
			<path d="M5413.31,745.59h20.14c22.66,0,31.89-11.75,31.89-29.37c0-11.75-4.2-25.59-16.36-58.32l-57.9-153.15h60l31.89,96.92     c6.71,19.72,13.85,46.99,13.85,46.99h0.84c0,0,5.87-27.27,12.59-46.99l30.21-96.92h57.48l-75.11,220.7     c-16.36,47.83-32.31,65.04-75.94,65.04h-33.57V745.59z"/>
		</g>
	</g>
	<g>
		<path d="M720,720h160V240H720V720z M960,160h400V0H960V160z M720,0h160v160H720V0z M480,720h160V0H480V720z M240,560h160V0H240    V560z M0,720h160V0H0V720z M960,720h160V240H960V720z"/>
		<g>
			<path d="M1507.07,570.63c0-89.79,56.22-156.51,144.76-156.51c88.53,0,144.34,66.71,144.34,156.51     c0,89.79-55.8,156.09-144.34,156.09C1563.29,726.71,1507.07,660.42,1507.07,570.63z M1734.07,570.63     c0-60-26.85-106.58-81.82-106.58s-83.08,46.57-83.08,106.58c0,59.58,28.11,106.16,83.08,106.16S1734.07,630.21,1734.07,570.63z"/>
			<path d="M1812.1,504.75h29.37v-17.62c0-52.45,40.7-70.91,93.57-65.04v44.06c-24.75-1.26-36.5,2.1-36.5,24.34v14.27h64.2v-19.3     c0-52.45,40.7-70.91,95.67-65.04v44.06c-26.85-1.26-38.6,2.1-38.6,24.34v15.94h38.6v39.44h-38.6V720h-57.06V544.19h-64.2V720     h-57.06V544.19h-29.37V504.75z M2084,420h57.06v51.19H2084V420z M2084,504.75h57.06V720H2084V504.75z"/>
			<path d="M2167.49,612.59c0-64.2,41.96-113.71,107.41-113.71c55.81,0,90.21,32.31,97.76,78.88h-55.8     c-3.78-18.88-18.46-33.15-39.44-33.15c-34.41,0-52.03,26.43-52.03,67.97c0,40.7,16.36,67.97,51.19,67.97     c23.08,0,39.44-12.17,43.22-36.5h54.97c-3.78,45.73-39.44,82.24-96.92,82.24C2209.87,726.29,2167.49,676.78,2167.49,612.59z"/>
			<path d="M2389.03,612.17c0-63.78,43.22-113.29,106.16-113.29c69.23,0,106.16,52.87,106.16,129.65h-156.09     c4.2,33.15,22.66,53.71,54.97,53.71c22.24,0,35.25-10.07,41.54-26.43h56.22c-7.97,38.18-41.96,70.49-97.34,70.49     C2429.31,726.29,2389.03,676.36,2389.03,612.17z M2446.09,589.09h95.67c-1.68-27.27-19.72-46.15-45.73-46.15     C2465.81,542.93,2451.12,560.98,2446.09,589.09z"/>
			<path d="M2687.76,612.59c0-64.2,45.74-113.71,112.45-113.71c66.71,0,112.45,49.51,112.45,113.71     c0,64.2-45.73,113.71-112.45,113.71C2733.5,726.29,2687.76,676.78,2687.76,612.59z M2854.76,612.59     c0-41.96-19.72-70.49-54.55-70.49c-35.25,0-54.55,28.53-54.55,70.49c0,41.96,19.3,70.07,54.55,70.07     C2835.04,682.66,2854.76,654.54,2854.76,612.59z"/>
			<path d="M2922.31,504.75h29.37v-19.3c0-52.45,40.7-70.91,95.67-65.04v44.06c-26.85-1.26-38.6,2.1-38.6,24.34v15.94h38.6v39.44     h-38.6V720h-57.06V544.19h-29.37V504.75z"/>
			<path d="M3135.03,627.27h59.58c4.2,36.08,24.76,50.35,67.55,50.35c31.05,0,58.32-10.91,58.32-38.6     c0-29.37-28.53-35.25-74.27-45.73c-53.71-12.17-102.8-26.43-102.8-88.95c0-59.16,48.25-89.79,114.97-89.79     c67.55,0,111.19,33.15,115.81,93.57h-58.32c-3.36-30.21-26.85-45.32-57.9-45.32c-32.73,0-54.13,13.85-54.13,35.25     c0,24.34,20.98,31.47,65.46,41.12c61.68,13.43,112.03,28.11,112.03,92.73c0,60.84-49.09,94.83-116.64,94.83     C3183.28,726.71,3137.12,690.63,3135.03,627.27z"/>
			<path d="M3549.15,720v-25.18h-1.26c-14.69,19.72-31.47,31.05-61.68,31.05c-47.83,0-74.69-30.63-74.69-77.62v-143.5h56.64V638.6     c0,25.18,11.33,39.02,35.67,39.02c26.85,0,43.22-20.14,43.22-48.67v-124.2h57.06V720H3549.15z"/>
			<path d="M3627.61,650.35h52.87c3.78,24.76,21.4,35.67,46.99,35.67c25.17,0,39.44-9.65,39.44-24.76     c0-20.56-27.27-22.66-56.64-28.53c-38.6-7.55-76.36-18.04-76.36-65.04c0-46.57,38.6-68.81,87.69-68.81     c56.64,0,88.11,28.11,92.31,71.33h-51.61c-2.52-23.08-17.2-31.47-41.54-31.47c-22.24,0-36.92,8.39-36.92,23.92     c0,18.46,28.53,20.14,59.16,26.43c36.08,7.55,75.95,17.62,75.95,67.97c0,43.22-36.92,69.23-90.63,69.23     C3665.8,726.29,3630.97,696.08,3627.61,650.35z"/>
			<path d="M3827.75,504.75h29.79v-67.13h55.8v67.13h36.92v37.76h-36.92v114.13c0,15.94,8.81,21.4,21.4,21.4     c7.13,0,16.78-0.42,16.78-0.42v41.96c0,0-13.01,0.84-35.67,0.84c-27.69,0-58.32-10.91-58.32-51.61v-126.3h-29.79V504.75z"/>
			<path d="M4110.54,696.08h-0.84c-10.91,16.36-26.43,28.95-63.36,28.95c-44.06,0-75.11-23.08-75.11-65.88     c0-47.41,38.6-62.52,86.44-69.23c35.66-5.04,52.03-7.97,52.03-24.34c0-15.52-12.17-25.59-36.08-25.59     c-26.85,0-39.86,9.65-41.54,30.21h-50.77c1.68-37.76,29.79-70.91,92.73-70.91c64.62,0,90.63,28.95,90.63,79.3v109.51     c0,16.36,2.52,26.01,7.55,29.79v2.1h-54.97C4113.9,715.8,4111.8,705.73,4110.54,696.08z M4110.96,644.05v-32.31     c-10.07,5.88-25.59,9.23-39.86,12.59c-29.79,6.71-44.48,13.43-44.48,33.57c0,20.14,13.43,27.27,33.57,27.27     C4092.92,685.17,4110.96,665.03,4110.96,644.05z"/>
			<path d="M4200.74,420h57.06v51.19h-57.06V420z M4200.74,504.75h57.06V720h-57.06V504.75z"/>
			<path d="M4350.53,534.12h1.26c14.69-23.08,34.41-35.25,63.78-35.25c44.48,0,74.27,33.57,74.27,80.56V720h-57.06V587.83     c0-23.08-13.43-39.44-37.34-39.44c-25.17,0-43.64,20.14-43.64,49.51V720h-57.06V504.75h55.8V534.12z"/>
			<path d="M4653.89,696.08h-0.84c-10.91,16.36-26.43,28.95-63.36,28.95c-44.06,0-75.11-23.08-75.11-65.88     c0-47.41,38.6-62.52,86.44-69.23c35.66-5.04,52.03-7.97,52.03-24.34c0-15.52-12.17-25.59-36.08-25.59     c-26.85,0-39.86,9.65-41.54,30.21h-50.77c1.68-37.76,29.79-70.91,92.73-70.91c64.62,0,90.63,28.95,90.63,79.3v109.51     c0,16.36,2.52,26.01,7.55,29.79v2.1h-54.97C4657.25,715.8,4655.15,705.73,4653.89,696.08z M4654.31,644.05v-32.31     c-10.07,5.88-25.59,9.23-39.86,12.59c-29.79,6.71-44.48,13.43-44.48,33.57c0,20.14,13.43,27.27,33.57,27.27     C4636.27,685.17,4654.31,665.03,4654.31,644.05z"/>
			<path d="M4799.9,693.15h-0.84V720h-54.97V420h57.06v110.77h1.26c11.75-18.04,30.21-31.89,60-31.89     c54.13,0,92.73,46.57,92.73,113.71c0,69.65-36.92,113.71-91.05,113.71C4833.88,726.29,4812.48,713.29,4799.9,693.15z      M4897.24,612.59c0-39.86-15.94-67.55-47.83-67.55c-36.08,0-49.51,28.95-49.51,68.81c0,39.44,19.72,64.62,51.61,64.62     C4880.88,678.46,4897.24,654.12,4897.24,612.59z"/>
			<path d="M4981.57,420h57.06v51.19h-57.06V420z M4981.57,504.75h57.06V720h-57.06V504.75z"/>
			<path d="M5076.4,420h57.06v300h-57.06V420z"/>
			<path d="M5171.22,420h57.06v51.19h-57.06V420z M5171.22,504.75h57.06V720h-57.06V504.75z"/>
			<path d="M5252.62,504.75h29.79v-67.13h55.8v67.13h36.92v37.76h-36.92v114.13c0,15.94,8.81,21.4,21.4,21.4     c7.13,0,16.78-0.42,16.78-0.42v41.96c0,0-13.01,0.84-35.67,0.84c-27.69,0-58.32-10.91-58.32-51.61v-126.3h-29.79V504.75z"/>
			<path d="M5413.31,745.59h20.14c22.66,0,31.89-11.75,31.89-29.37c0-11.75-4.2-25.59-16.36-58.32l-57.9-153.15h60l31.89,96.92     c6.71,19.72,13.85,46.99,13.85,46.99h0.84c0,0,5.87-27.27,12.59-46.99l30.21-96.92h57.48l-75.11,220.7     c-16.36,47.83-32.31,65.04-75.94,65.04h-33.57V745.59z"/>
		</g>
	</g>
</g>
<g id="Guides">
</g>
</svg>